
<svg version="1.0" xmlns="http://www.w3.org/2000/svg"
 width="400.000000pt" height="400.000000pt" viewBox="0 0 400.000000 400.000000"
 preserveAspectRatio="xMidYMid meet">

<g transform="translate(0.000000,400.000000) scale(0.100000,-0.100000)"
fill="#000000" stroke="none">
<path d="M1010 2991 c0 -6 11 -56 26 -113 22 -90 27 -144 39 -423 8 -176 15
-353 15 -393 l0 -74 167 -169 166 -169 144 0 143 0 0 175 c0 175 0 175 23 175
12 0 37 -14 55 -30 l32 -30 0 -160 0 -160 -45 0 -45 0 0 -215 0 -215 50 0 50
0 0 -155 0 -155 165 0 165 0 0 150 0 150 45 0 45 0 0 310 0 310 -40 0 -40 0 0
65 c0 62 2 66 38 100 20 19 47 35 60 35 22 0 22 0 22 -175 l0 -175 147 0 147
0 159 161 c87 89 163 173 168 186 5 13 9 190 9 393 l0 369 40 113 c22 62 40
116 40 121 0 4 -172 7 -381 7 l-381 0 -119 -111 -119 -111 -119 111 -119 111
-376 0 c-227 0 -376 -4 -376 -9z m710 -161 l0 -90 -90 0 -90 0 2 -327 3 -328
43 0 42 0 0 -177 0 -178 -83 0 -82 0 -147 148 -147 147 -6 160 c-16 441 -27
602 -45 668 l-17 67 308 0 309 0 0 -90z m1166 74 c-39 -103 -46 -150 -47 -338
-1 -105 -4 -271 -8 -368 l-6 -177 -138 -145 -138 -145 -89 -3 -90 -3 0 180 0
180 45 -3 45 -4 0 331 0 331 -90 0 -90 0 0 88 0 87 305 0 c223 0 304 -3 301
-11z m-518 -491 l-3 -226 -181 -138 -181 -138 -186 137 -187 137 0 227 0 228
370 0 370 0 -2 -227z m-278 -648 l0 -45 40 0 40 0 0 -45 0 -45 -45 0 -45 0 0
-45 0 -45 50 0 50 0 0 -44 0 -45 -47 -3 -48 -3 -3 -47 -3 -48 45 0 46 0 0 -45
0 -45 -45 0 -45 0 0 -45 0 -45 -45 0 -45 0 0 45 0 45 45 0 45 0 0 45 0 45 -40
0 -40 0 0 140 0 140 40 0 40 0 0 50 0 50 -45 0 -45 0 0 -50 0 -50 -40 0 -40 0
0 90 0 90 90 0 90 0 0 -45z"/>
<path d="M1740 2403 l0 -138 135 -89 135 -89 135 89 135 89 0 138 0 137 -270
0 -270 0 0 -137z m450 -21 l0 -87 -91 -53 c-57 -34 -97 -51 -107 -47 -10 3
-52 27 -94 52 l-78 45 0 89 0 89 185 0 185 0 0 -88z"/>
</g>
</svg>
