<?xml version="1.0" standalone="no"?>
<!DOCTYPE svg PUBLIC "-//W3C//DTD SVG 20010904//EN"
 "http://www.w3.org/TR/2001/REC-SVG-20010904/DTD/svg10.dtd">
<svg version="1.0" xmlns="http://www.w3.org/2000/svg"
 width="400.000000pt" height="400.000000pt" viewBox="0 0 400.000000 400.000000"
 preserveAspectRatio="xMidYMid meet">
<metadata>
Created by potrace 1.16, written by Peter Selinger 2001-2019
</metadata>
<g transform="translate(0.000000,400.000000) scale(0.100000,-0.100000)"
fill="#000000" stroke="none">
<path d="M1131 3028 l-193 -132 7 -315 c4 -174 9 -319 12 -323 2 -5 76 -8 164
-8 l159 0 0 -95 0 -95 -150 0 -150 0 0 -220 0 -220 80 0 c46 0 80 -4 80 -10 0
-5 -50 -77 -110 -159 -61 -82 -110 -151 -110 -155 0 -3 83 -6 185 -6 l185 0 0
-105 0 -105 -55 0 -55 0 0 -130 0 -130 213 0 213 0 67 68 67 68 0 167 0 167
160 0 c88 0 160 3 160 6 0 3 -40 73 -90 156 -50 82 -90 153 -90 159 0 5 14 9
30 9 l30 0 0 220 0 220 -105 0 -105 0 0 265 0 265 50 0 50 0 0 130 0 130 -240
0 -240 0 0 155 c0 118 -3 155 -12 155 -7 -1 -100 -60 -207 -132z m153 -368 c7
-179 11 -327 9 -330 -3 -3 -62 -7 -133 -8 l-128 -4 -6 179 c-4 98 -8 216 -9
263 l-2 85 125 83 c79 53 126 79 128 70 1 -7 8 -159 16 -338z m466 55 l0 -45
-195 0 -195 0 0 43 c0 24 2 46 4 48 2 2 90 3 195 1 l191 -3 0 -44z m-100 -385
l0 -240 -145 0 -145 0 0 240 0 240 145 0 145 0 0 -240z m-490 -450 l0 -100
100 0 100 0 0 100 0 100 100 0 100 0 0 -100 0 -101 101 3 102 3 1 95 1 95 43
0 c23 0 42 -3 42 -7 0 -5 0 -66 0 -138 l0 -130 -395 0 -395 0 0 140 0 140 50
0 50 0 0 -100z m688 -379 c39 -65 72 -121 72 -125 0 -3 -189 -6 -420 -6 -231
0 -420 3 -420 6 0 3 39 59 86 125 l85 119 262 0 262 -1 73 -118z m-190 -355
l3 -150 -43 -43 -42 -43 -153 0 -153 0 0 45 0 45 50 0 50 0 0 150 0 151 143
-3 142 -3 3 -149z"/>
<path d="M2300 2702 c-9 -4 -37 -31 -64 -60 -57 -61 -143 -107 -231 -123 -33
-6 -70 -13 -82 -15 -23 -4 -23 -7 -23 -140 l0 -135 90 -119 90 -119 0 -311 0
-311 106 -155 105 -154 229 0 229 0 105 154 106 155 0 311 0 311 90 113 90
114 0 145 0 144 -57 6 c-117 10 -252 78 -301 150 l-23 34 -106 6 c-134 9 -333
8 -353 -1z m175 -382 l0 -295 -161 -3 -161 -2 -89 117 -88 118 3 85 c1 47 4
86 5 88 2 1 30 9 62 17 94 24 196 79 240 129 l39 45 75 -2 75 -2 0 -295z m277
249 c58 -56 147 -104 243 -129 l60 -15 3 -82 3 -81 -86 -116 -87 -116 -164 0
-164 0 0 295 0 295 70 0 69 0 53 -51z m-282 -1029 l0 -400 -65 0 -64 0 -90
132 -90 133 -1 268 0 267 155 0 155 0 0 -400z m410 133 l0 -268 -91 -132 -90
-133 -70 0 -69 0 0 400 0 400 160 0 160 0 0 -267z"/>
<path d="M2270 2235 l0 -95 50 0 50 0 0 95 0 95 -50 0 -50 0 0 -95z"/>
<path d="M2670 2235 l0 -95 50 0 50 0 0 95 0 95 -50 0 -50 0 0 -95z"/>
<path d="M2270 1730 l0 -100 50 0 50 0 0 100 0 100 -50 0 -50 0 0 -100z"/>
<path d="M2677 1824 c-4 -4 -7 -47 -7 -96 l0 -88 50 0 51 0 -3 93 -3 92 -40 3
c-23 2 -44 0 -48 -4z"/>
</g>
</svg>
