<?xml version="1.0" standalone="no"?>
<!DOCTYPE svg PUBLIC "-//W3C//DTD SVG 20010904//EN"
 "http://www.w3.org/TR/2001/REC-SVG-20010904/DTD/svg10.dtd">
<svg version="1.0" xmlns="http://www.w3.org/2000/svg"
 width="400.000000pt" height="400.000000pt" viewBox="0 0 400.000000 400.000000"
 preserveAspectRatio="xMidYMid meet">
<metadata>
Created by potrace 1.16, written by Peter Selinger 2001-2019
</metadata>
<g transform="translate(0.000000,400.000000) scale(0.100000,-0.100000)"
fill="#000000" stroke="none">
<path d="M2434 3095 c-35 -24 -47 -67 -39 -142 7 -65 9 -70 61 -122 l54 -54 0
-314 0 -313 -485 0 c-267 0 -485 2 -485 4 0 2 16 20 35 39 21 21 39 53 47 81
10 39 16 46 37 46 29 0 221 185 246 237 19 40 13 104 -13 134 -9 11 -93 70
-186 131 l-169 113 -63 -2 c-122 -3 -129 -17 -126 -235 l2 -168 -94 0 c-87 0
-96 -2 -133 -29 -54 -39 -77 -90 -77 -171 0 -79 19 -119 76 -160 36 -26 49
-30 110 -30 37 0 68 -4 68 -9 0 -4 -50 -57 -112 -117 -137 -133 -240 -241
-252 -263 -6 -9 -9 -75 -9 -147 1 -139 12 -181 53 -207 19 -11 20 -24 20 -182
0 -138 3 -175 16 -193 15 -21 20 -22 205 -22 122 0 189 -4 189 -10 0 -7 27 -8
79 -4 l78 7 5 -58 c6 -74 28 -95 100 -95 49 0 52 2 127 75 l77 75 193 0 192 0
72 70 c47 46 75 66 81 60 6 -6 80 -10 176 -10 149 0 169 2 183 18 14 16 17 43
17 164 l0 146 145 143 145 143 0 48 c0 60 -11 83 -52 104 -23 12 -47 15 -90
11 l-58 -5 0 454 0 453 41 38 c48 45 60 89 52 181 -9 93 -22 102 -142 102 -82
0 -98 -3 -117 -21 l-22 -21 -11 21 c-11 19 -20 21 -119 21 -78 0 -113 -4 -128
-15z m198 -97 l3 -33 65 0 65 0 3 33 3 32 60 0 59 0 0 -57 c0 -55 -1 -57 -58
-115 l-59 -58 -82 0 -82 0 -60 56 c-61 59 -78 97 -65 149 6 24 10 25 76 25
l69 0 3 -32z m-973 -249 c86 -56 159 -107 163 -113 19 -29 2 -56 -92 -151 -54
-55 -102 -96 -106 -92 -4 3 5 48 19 98 15 51 24 95 22 100 -7 10 -95 59 -106
59 -5 0 -9 -81 -9 -180 l0 -180 -34 -38 -34 -37 -127 -3 c-138 -4 -172 4 -205
46 -14 17 -20 40 -20 77 0 48 3 56 35 84 35 30 38 31 138 31 67 0 107 4 115
12 8 8 12 66 12 193 0 100 3 185 7 188 23 24 74 2 222 -94z m1130 -63 c8 -9
11 -51 9 -122 l-3 -109 -95 0 -95 0 -3 114 c-2 85 1 117 10 123 23 14 164 10
177 -6z m-1 -578 l2 -218 -70 0 -70 0 0 -165 0 -165 -145 0 -145 0 0 -178 0
-179 -74 -71 -74 -72 -126 0 -126 0 0 65 0 65 -190 0 -190 0 0 -65 0 -65 -67
0 c-38 0 -75 5 -83 10 -8 5 -106 100 -217 212 l-203 203 0 115 0 116 178 177
178 177 562 0 562 0 0 -92 0 -93 -223 -222 -222 -223 -264 0 -263 0 -79 77
c-44 42 -79 81 -79 87 0 14 202 216 215 216 5 -1 48 -37 95 -80 l85 -80 -117
0 c-65 0 -118 -3 -118 -7 0 -4 21 -29 47 -55 l47 -48 177 0 c148 0 178 2 183
15 3 8 3 22 0 30 -5 13 -238 230 -360 336 l-47 41 -179 -179 c-98 -98 -178
-182 -178 -188 0 -5 57 -67 127 -137 l128 -128 311 0 311 0 245 243 c135 133
250 252 256 264 8 14 12 96 12 246 0 123 3 227 7 231 4 4 46 5 93 4 l85 -3 3
-217z m202 -336 c0 -22 -24 -52 -120 -147 l-120 -120 0 148 0 147 120 0 120 0
0 -28z m-272 -449 l-3 -138 -110 -3 c-168 -4 -155 -16 -155 143 l0 135 135 0
136 0 -3 -137z m-869 -230 c-1 -21 -20 -46 -79 -100 -43 -40 -86 -73 -94 -73
-14 0 -16 16 -16 100 l0 100 95 0 95 0 -1 -27z"/>
</g>
</svg>
