<?xml version="1.0" standalone="no"?>
<!DOCTYPE svg PUBLIC "-//W3C//DTD SVG 20010904//EN"
 "http://www.w3.org/TR/2001/REC-SVG-20010904/DTD/svg10.dtd">
<svg version="1.0" xmlns="http://www.w3.org/2000/svg"
 width="400.000000pt" height="400.000000pt" viewBox="0 0 400.000000 400.000000"
 preserveAspectRatio="xMidYMid meet">
<metadata>
Created by potrace 1.16, written by Peter Selinger 2001-2019
</metadata>
<g transform="translate(0.000000,400.000000) scale(0.100000,-0.100000)"
fill="#000000" stroke="none">
<path d="M2500 2930 l0 -170 -70 0 -70 0 0 105 0 105 -435 0 -435 0 0 -55 0
-55 -305 0 -305 0 0 -595 0 -594 23 -64 c34 -93 73 -154 137 -217 110 -108
185 -130 393 -115 l107 7 -1 111 0 112 -52 25 c-96 47 -147 147 -147 287 l0
73 175 0 175 0 0 -75 0 -75 -50 0 -50 0 0 -125 0 -125 50 0 50 0 0 -220 0
-220 50 0 50 0 0 -110 0 -110 230 0 230 0 0 180 0 180 -50 0 -50 0 0 150 0
150 105 0 105 0 0 260 0 260 70 0 70 0 0 -175 c0 -96 3 -175 6 -175 10 0 77
62 332 308 l232 224 0 454 0 454 -285 0 -285 0 0 -170z m490 -296 l0 -396
-191 -187 c-105 -102 -198 -190 -205 -194 -12 -7 -14 84 -14 577 l0 585 113 4
c61 1 154 4 205 5 l92 2 0 -396z m-710 -204 l0 -460 -255 0 -255 0 0 50 0 50
-105 0 -105 0 0 100 0 100 -95 0 -95 0 0 105 0 105 100 0 100 0 0 205 0 205
355 0 355 0 0 -460z m-820 250 l0 -100 -100 0 -100 0 0 -205 0 -205 100 0 100
0 0 -100 0 -100 -100 0 -100 0 0 -113 c0 -193 38 -294 137 -366 60 -44 63 -48
63 -88 l0 -43 -117 0 c-113 0 -120 1 -162 29 -69 46 -152 132 -172 179 -48
110 -49 129 -49 686 l0 526 250 0 250 0 0 -100z m434 -845 c9 -49 59 -102 107
-115 81 -22 156 24 179 111 11 39 12 40 53 37 l42 -3 0 -150 0 -150 -302 -3
-303 -2 0 50 0 50 50 0 50 0 0 98 c0 54 3 102 7 105 3 4 30 7 59 7 51 0 52 0
58 -35z m186 -550 l0 -175 45 0 45 0 0 -105 0 -106 -152 3 -153 3 -3 103 -3
102 56 0 55 0 2 93 c1 50 1 129 -1 175 l-3 82 56 0 56 0 0 -175z"/>
<path d="M1953 2760 c-41 -24 -65 -71 -65 -124 0 -56 14 -88 52 -119 126 -107
307 35 232 183 -37 75 -146 105 -219 60z"/>
<path d="M1980 2349 c-109 -44 -126 -209 -27 -269 49 -30 92 -35 143 -15 53
20 94 80 94 140 0 104 -114 182 -210 144z"/>
</g>
</svg>
